<svg width="48" height="48" viewBox="0 0 48 48" fill="none" xmlns="http://www.w3.org/2000/svg">
<path d="M24 34C28.13 34 31.5 30.63 31.5 26.5V21.5C31.5 17.37 28.13 14 24 14C19.87 14 16.5 17.37 16.5 21.5V26.5C16.5 30.63 19.87 34 24 34Z" stroke="white" stroke-width="2" stroke-linecap="round" stroke-linejoin="round"/>
<path d="M24 23C23.17 23 22.5 22.33 22.5 21.5V19.5C22.5 18.67 23.17 18 24 18C24.82 18 25.5 18.67 25.5 19.5V21.5C25.5 22.33 24.82 23 24 23Z" stroke="white" stroke-width="2" stroke-linecap="round" stroke-linejoin="round"/>
<path d="M24 18V14" stroke="white" stroke-width="2" stroke-linecap="round" stroke-linejoin="round"/>
<rect x="1" y="1" width="46" height="46" rx="23" stroke="#4C8DDB" stroke-width="2"/>
</svg>
