<svg width="126" height="24" viewBox="0 0 126 24" fill="none" xmlns="http://www.w3.org/2000/svg">
<path d="M23.1101 0H16.0977C15.9364 0 15.7865 0.0809998 15.6977 0.215614L0.491302 23.2567C0.280678 23.5758 0.509559 24.0011 0.89194 24.0011H7.90166C8.06295 24.0011 8.21345 23.9201 8.3023 23.7855L11.5994 18.7897C11.7891 18.5022 12.2109 18.5022 12.4006 18.7897L15.6977 23.7855C15.7865 23.9201 15.9371 24.0011 16.0983 24.0011H23.1081C23.4904 24.0011 23.7193 23.5758 23.5087 23.2567L16.2545 12.265C16.1487 12.1046 16.1487 11.8965 16.2545 11.7361L23.5087 0.74443C23.7193 0.425287 23.4925 0 23.1101 0Z" fill="white"/>
<path d="M0 8.88041V1.15891C0 0.731255 0.517063 0.517087 0.819457 0.819495L8.5406 8.54099C8.84298 8.84339 8.62881 9.36044 8.20116 9.36044H0.480022C0.214913 9.36044 0 9.14552 0 8.88041Z" fill="white"/>
<path d="M31.728 21.0005V5.40049H35.856V11.2085H35.952L39.888 5.40049H44.4L39.744 11.7365L45.312 21.0005H40.8L37.344 15.0005L35.856 17.1125V21.0005H31.728ZM45.5983 21.0005V5.40049H55.6783V8.85649H49.7263V11.3045H54.8143V14.7605H49.7263V17.5445H55.9183V21.0005H45.5983ZM57.7343 21.0005V5.40049H61.8623V21.0005H57.7343ZM67.104 21.0005V8.85649H62.976V5.40049H75.36V8.85649H71.232V21.0005H67.104ZM83.0509 21.2885C81.6109 21.2885 80.3469 20.9685 79.2589 20.3285C78.1709 19.6725 77.3229 18.7365 76.7149 17.5205C76.1069 16.3045 75.8029 14.8405 75.8029 13.1285C75.8029 11.4165 76.1069 9.96849 76.7149 8.78449C77.3229 7.58449 78.1709 6.67249 79.2589 6.04849C80.3469 5.42449 81.6109 5.11249 83.0509 5.11249C84.4909 5.11249 85.7549 5.42449 86.8429 6.04849C87.9309 6.67249 88.7789 7.58449 89.3869 8.78449C89.9949 9.96849 90.2989 11.4165 90.2989 13.1285C90.2989 14.8405 89.9949 16.3045 89.3869 17.5205C88.7789 18.7365 87.9309 19.6725 86.8429 20.3285C85.7549 20.9685 84.4909 21.2885 83.0509 21.2885ZM83.0509 17.7365C83.6749 17.7365 84.2109 17.5525 84.6589 17.1845C85.1229 16.8005 85.4749 16.2645 85.7149 15.5765C85.9549 14.8885 86.0749 14.0725 86.0749 13.1285C86.0749 12.1845 85.9549 11.3845 85.7149 10.7285C85.4749 10.0565 85.1229 9.54449 84.6589 9.19249C84.2109 8.84049 83.6749 8.66449 83.0509 8.66449C82.4269 8.66449 81.8829 8.84049 81.4189 9.19249C80.9709 9.54449 80.6269 10.0565 80.3869 10.7285C80.1469 11.3845 80.0269 12.1845 80.0269 13.1285C80.0269 14.0725 80.1469 14.8885 80.3869 15.5765C80.6269 16.2645 80.9709 16.8005 81.4189 17.1845C81.8829 17.5525 82.4269 17.7365 83.0509 17.7365ZM94.8681 21.0005V8.85649H90.7401V5.40049H103.124V8.85649H98.9961V21.0005H94.8681ZM110.815 21.2885C109.375 21.2885 108.111 20.9685 107.023 20.3285C105.935 19.6725 105.087 18.7365 104.479 17.5205C103.871 16.3045 103.567 14.8405 103.567 13.1285C103.567 11.4165 103.871 9.96849 104.479 8.78449C105.087 7.58449 105.935 6.67249 107.023 6.04849C108.111 5.42449 109.375 5.11249 110.815 5.11249C112.255 5.11249 113.519 5.42449 114.607 6.04849C115.695 6.67249 116.543 7.58449 117.151 8.78449C117.759 9.96849 118.063 11.4165 118.063 13.1285C118.063 14.8405 117.759 16.3045 117.151 17.5205C116.543 18.7365 115.695 19.6725 114.607 20.3285C113.519 20.9685 112.255 21.2885 110.815 21.2885ZM110.815 17.7365C111.439 17.7365 111.975 17.5525 112.423 17.1845C112.887 16.8005 113.239 16.2645 113.479 15.5765C113.719 14.8885 113.839 14.0725 113.839 13.1285C113.839 12.1845 113.719 11.3845 113.479 10.7285C113.239 10.0565 112.887 9.54449 112.423 9.19249C111.975 8.84049 111.439 8.66449 110.815 8.66449C110.191 8.66449 109.647 8.84049 109.183 9.19249C108.735 9.54449 108.391 10.0565 108.151 10.7285C107.911 11.3845 107.791 12.1845 107.791 13.1285C107.791 14.0725 107.911 14.8885 108.151 15.5765C108.391 16.2645 108.735 16.8005 109.183 17.1845C109.647 17.5525 110.191 17.7365 110.815 17.7365ZM121.768 21.2885C121.08 21.2885 120.504 21.0485 120.04 20.5685C119.592 20.0725 119.368 19.4805 119.368 18.7925C119.368 18.0885 119.592 17.4965 120.04 17.0165C120.504 16.5365 121.08 16.2965 121.768 16.2965C122.472 16.2965 123.048 16.5365 123.496 17.0165C123.944 17.4965 124.168 18.0885 124.168 18.7925C124.168 19.4805 123.944 20.0725 123.496 20.5685C123.048 21.0485 122.472 21.2885 121.768 21.2885Z" fill="white"/>
</svg>
